<svg width="20" height="21" viewBox="0 0 20 21" fill="none" xmlns="http://www.w3.org/2000/svg">
<g clip-path="url(#clip0)">
<path d="M10 11.8491C10.1642 11.8491 10.3267 11.8168 10.4784 11.754C10.63 11.6912 10.7678 11.5991 10.8839 11.483C11 11.3669 11.092 11.2291 11.1548 11.0775C11.2177 10.9258 11.25 10.7633 11.25 10.5991V6.84912C11.25 6.5176 11.1183 6.19966 10.8839 5.96524C10.6495 5.73082 10.3315 5.59912 10 5.59912C9.66848 5.59912 9.35054 5.73082 9.11612 5.96524C8.8817 6.19966 8.75 6.5176 8.75 6.84912V10.5991C8.75 10.7633 8.78233 10.9258 8.84515 11.0775C8.90797 11.2291 9.00004 11.3669 9.11612 11.483C9.23219 11.5991 9.36999 11.6912 9.52165 11.754C9.6733 11.8168 9.83585 11.8491 10 11.8491Z" fill="#1C3E57"/>
<path d="M10 16.4092C10.8284 16.4092 11.5 15.7376 11.5 14.9092C11.5 14.0808 10.8284 13.4092 10 13.4092C9.17157 13.4092 8.5 14.0808 8.5 14.9092C8.5 15.7376 9.17157 16.4092 10 16.4092Z" fill="#1C3E57"/>
<path d="M10 0.90918C8.02219 0.90918 6.08879 1.49567 4.4443 2.59448C2.79981 3.6933 1.51809 5.25508 0.761209 7.08235C0.00433284 8.90961 -0.193701 10.9203 0.192152 12.8601C0.578004 14.7999 1.53041 16.5817 2.92894 17.9802C4.32746 19.3788 6.10929 20.3312 8.0491 20.717C9.98891 21.1029 11.9996 20.9049 13.8268 20.148C15.6541 19.3911 17.2159 18.1094 18.3147 16.4649C19.4135 14.8204 20 12.887 20 10.9092C20 8.25702 18.9464 5.71348 17.0711 3.83811C15.1957 1.96275 12.6522 0.90918 10 0.90918V0.90918ZM10 18.4092C8.51664 18.4092 7.0666 17.9693 5.83323 17.1452C4.59986 16.3211 3.63857 15.1498 3.07091 13.7793C2.50325 12.4089 2.35473 10.9009 2.64411 9.446C2.9335 7.99115 3.64781 6.65477 4.6967 5.60588C5.7456 4.55699 7.08197 3.84268 8.53683 3.55329C9.99168 3.2639 11.4997 3.41243 12.8701 3.98008C14.2406 4.54774 15.4119 5.50904 16.236 6.7424C17.0601 7.97577 17.5 9.42582 17.5 10.9092C17.5 11.8941 17.306 12.8694 16.9291 13.7793C16.5522 14.6892 15.9997 15.516 15.3033 16.2125C14.6069 16.9089 13.7801 17.4614 12.8701 17.8383C11.9602 18.2152 10.9849 18.4092 10 18.4092Z" fill="#1C3E57"/>
</g>
<defs>
<clipPath id="clip0">
<path d="M0 0.90918H20V20.9092H0V0.90918Z" fill="white"/>
</clipPath>
</defs>
</svg>
