<svg width="12" height="21" viewBox="0 0 12 21" fill="none" xmlns="http://www.w3.org/2000/svg">
<path d="M10.4981 20.0492C10.3009 20.0499 10.1055 20.0133 9.92326 19.9415C9.74099 19.8697 9.57539 19.7642 9.43603 19.6311L0.435769 11.0393C0.156551 10.7692 0 10.405 0 10.0255C0 9.64603 0.156551 9.2818 0.435769 9.01169L9.43603 0.41994C9.7177 0.151057 10.0997 0 10.4981 0C10.8964 0 11.2784 0.151057 11.5601 0.41994C11.8418 0.688824 12 1.05351 12 1.43377C12 1.81403 11.8418 2.17871 11.5601 2.44759L3.59786 10.0312L11.5601 17.6092C11.8393 17.8793 11.9959 18.2435 11.9959 18.623C11.9959 19.0025 11.8393 19.3667 11.5601 19.6368C11.4202 19.7689 11.2544 19.8734 11.0722 19.9441C10.8899 20.0149 10.6948 20.0506 10.4981 20.0492Z" fill="#212123"/>
</svg>
