<svg width="20" height="20" viewBox="0 0 20 20" fill="none" xmlns="http://www.w3.org/2000/svg">
<path d="M1.5 6.75011C1.49944 6.58581 1.5314 6.42302 1.59404 6.27113C1.65669 6.11924 1.74878 5.98125 1.865 5.86511C2.1008 5.63244 2.41874 5.50198 2.75 5.50198C3.08127 5.50198 3.39921 5.63244 3.635 5.86511L10.245 12.5001L16.86 5.86511C17.0947 5.6304 17.4131 5.49854 17.745 5.49854C18.0769 5.49854 18.3953 5.6304 18.63 5.86511C18.8647 6.09983 18.9966 6.41817 18.9966 6.75011C18.9966 7.08205 18.8647 7.4004 18.63 7.63511L11.13 15.1351C10.8942 15.3678 10.5763 15.4982 10.245 15.4982C9.91374 15.4982 9.5958 15.3678 9.36 15.1351L1.86 7.63511C1.74468 7.51857 1.65351 7.38039 1.59173 7.22852C1.52995 7.07665 1.49878 6.91407 1.5 6.75011Z" fill="#4F66EE"/>
</svg>
