<svg width="12" height="21" viewBox="0 0 12 21" fill="none" xmlns="http://www.w3.org/2000/svg">
<path d="M1.50194 0.0493536C1.69911 0.0487052 1.89446 0.085229 2.07674 0.156816C2.25902 0.228404 2.42461 0.33364 2.56397 0.466458L11.5642 9.0371C11.8434 9.30655 12 9.66988 12 10.0484C12 10.427 11.8434 10.7903 11.5642 11.0598L2.56397 19.6304C2.2823 19.8986 1.90028 20.0493 1.50194 20.0493C1.1036 20.0493 0.721578 19.8986 0.439909 19.6304C0.158241 19.3622 1.999e-06 18.9984 2.03208e-06 18.6191C2.06516e-06 18.2397 0.158241 17.876 0.439909 17.6077L8.40214 10.0427L0.439911 2.48341C0.160694 2.21396 0.00414149 1.85063 0.00414152 1.47208C0.00414155 1.09353 0.160694 0.730201 0.439911 0.460746C0.579768 0.328958 0.745583 0.224774 0.927837 0.154176C1.11009 0.0835791 1.30519 0.0479555 1.50194 0.0493536Z" fill="#1C3E57"/>
</svg>
