<svg width="50" height="50" viewBox="0 0 50 50" fill="none" xmlns="http://www.w3.org/2000/svg">
<path d="M0 0H50V50H0V0Z" fill="white"/>
<g clip-path="url(#clip0)">
<path d="M25 15C23.0222 15 21.0888 15.5865 19.4443 16.6853C17.7998 17.7841 16.5181 19.3459 15.7612 21.1732C15.0043 23.0004 14.8063 25.0111 15.1922 26.9509C15.578 28.8907 16.5304 30.6725 17.9289 32.0711C19.3275 33.4696 21.1093 34.422 23.0491 34.8079C24.9889 35.1937 26.9996 34.9957 28.8268 34.2388C30.6541 33.4819 32.2159 32.2002 33.3147 30.5557C34.4135 28.9112 35 26.9778 35 25C35 22.3478 33.9464 19.8043 32.0711 17.9289C30.1957 16.0536 27.6522 15 25 15V15ZM32.425 24H30.315C30.221 21.997 29.5944 20.0552 28.5 18.375C29.5544 18.9329 30.4606 19.7342 31.1432 20.7125C31.8258 21.6908 32.2653 22.8178 32.425 24V24ZM24 18.43V24H21.695C21.92 21.215 22.945 19.5 24 18.43ZM24 26V31.82C22.915 30.73 21.85 28.935 21.675 26H24ZM26 31.82V26H28.325C28.15 28.935 27.085 30.73 26 31.82ZM26 24V18.43C27.055 19.5 28.08 21.215 28.305 24H26ZM21.5 18.375C20.4056 20.0552 19.779 21.997 19.685 24H17.575C17.7347 22.8178 18.1742 21.6908 18.8568 20.7125C19.5394 19.7342 20.4456 18.9329 21.5 18.375V18.375ZM17.575 26H19.68C19.7366 27.9349 20.2745 29.8252 21.245 31.5C20.2549 30.9232 19.4096 30.1279 18.7736 29.1747C18.1375 28.2215 17.7276 27.1357 17.575 26V26ZM28.755 31.5C29.7255 29.8252 30.2634 27.9349 30.32 26H32.425C32.2724 27.1357 31.8625 28.2215 31.2264 29.1747C30.5904 30.1279 29.7451 30.9232 28.755 31.5V31.5Z" fill="#1C3E57"/>
</g>
<defs>
<clipPath id="clip0">
<path d="M15 15H35V35H15V15Z" fill="white"/>
</clipPath>
</defs>
</svg>
