<svg width="50" height="50" viewBox="0 0 50 50" fill="none" xmlns="http://www.w3.org/2000/svg">
<path d="M0 0H50V50H0V0Z" fill="white"/>
<g clip-path="url(#clip0)">
<path d="M25 10C22.0333 10 19.1332 10.8797 16.6665 12.528C14.1997 14.1762 12.2771 16.5189 11.1418 19.2597C10.0065 22.0006 9.70945 25.0166 10.2882 27.9264C10.867 30.8361 12.2956 33.5088 14.3934 35.6066C16.4912 37.7044 19.1639 39.133 22.0737 39.7118C24.9834 40.2906 27.9994 39.9935 30.7403 38.8582C33.4811 37.7229 35.8238 35.8003 37.472 33.3336C39.1203 30.8668 40 27.9667 40 25C40 21.0218 38.4197 17.2064 35.6066 14.3934C32.7936 11.5804 28.9783 10 25 10V10ZM36.1375 23.5H32.9725C32.8315 20.4954 31.8917 17.5829 30.25 15.0625C31.8316 15.8993 33.1909 17.1013 34.2148 18.5688C35.2388 20.0362 35.8979 21.7267 36.1375 23.5V23.5ZM23.5 15.145V23.5H20.0425C20.38 19.3225 21.9175 16.75 23.5 15.145ZM23.5 26.5V35.23C21.8725 33.595 20.275 30.9025 20.0125 26.5H23.5ZM26.5 35.23V26.5H29.9875C29.725 30.9025 28.1275 33.595 26.5 35.23ZM26.5 23.5V15.145C28.0825 16.75 29.62 19.3225 29.9575 23.5H26.5ZM19.75 15.0625C18.1084 17.5829 17.1686 20.4954 17.0275 23.5H13.8625C14.1021 21.7267 14.7613 20.0362 15.7852 18.5688C16.8092 17.1013 18.1684 15.8993 19.75 15.0625V15.0625ZM13.8625 26.5H17.02C17.105 29.4023 17.9118 32.2377 19.3675 34.75C17.8823 33.8848 16.6144 32.6918 15.6603 31.262C14.7063 29.8323 14.0914 28.2035 13.8625 26.5V26.5ZM30.6325 34.75C32.0882 32.2377 32.895 29.4023 32.98 26.5H36.1375C35.9086 28.2035 35.2937 29.8323 34.3397 31.262C33.3856 32.6918 32.1177 33.8848 30.6325 34.75V34.75Z" fill="#1C3E57"/>
</g>
<defs>
<clipPath id="clip0">
<path d="M10 10H40V40H10V10Z" fill="white"/>
</clipPath>
</defs>
</svg>
