<svg width="60" height="38" viewBox="0 0 60 38" fill="none" xmlns="http://www.w3.org/2000/svg">
<path d="M29.7705 2.22175L5.06161 10.8744C3.38517 11.4614 3.38517 13.8323 5.06161 14.4194L29.7705 23.072C30.18 23.2154 30.6265 23.2126 31.0342 23.064L54.78 14.4114C56.4268 13.8114 56.4268 11.4824 54.78 10.8823L31.0342 2.22971C30.6265 2.08117 30.18 2.07836 29.7705 2.22175Z" fill="#999999" stroke="#999999" stroke-width="2.34965"/>
<path d="M29.9033 27.3378L16.6901 22.7418C15.4696 22.3174 14.1951 23.2235 14.1951 24.5156V29.0564C14.1951 29.8558 14.7011 30.5675 15.4561 30.8302L29.9033 35.8553C30.3029 35.9942 30.7377 35.9942 31.1372 35.8553L45.5844 30.8302C46.3395 30.5675 46.8455 29.8558 46.8455 29.0564V24.5156C46.8455 23.2235 45.5709 22.3174 44.3505 22.7418L31.1372 27.3378C30.7377 27.4767 30.3029 27.4767 29.9033 27.3378Z" fill="#999999" stroke="#999999" stroke-width="2.34965"/>
<circle cx="53.2342" cy="28.972" r="1.66434" fill="#999999" stroke="#999999" stroke-width="2.34965"/>
<line x1="52.7698" y1="30.3917" x2="52.7698" y2="13.3567" stroke="#999999" stroke-width="2.34965"/>
</svg>
