<svg width="24" height="24" viewBox="0 0 24 24" fill="none" xmlns="http://www.w3.org/2000/svg">
<rect width="24" height="24" rx="12" fill="#212123"/>
<path d="M12.4321 16.9998C12.3254 16.9998 12.2347 16.9625 12.1601 16.8878C12.0854 16.8131 12.0481 16.7225 12.0481 16.6158V8.35981L9.63207 10.2158C9.56807 10.2691 9.48807 10.2958 9.39207 10.2958C9.26407 10.2958 9.16274 10.2425 9.08807 10.1358L8.40007 9.23981C8.34674 9.16514 8.32007 9.09047 8.32007 9.01581C8.32007 8.88781 8.37874 8.78114 8.49607 8.6958L12.0801 5.91181C12.1974 5.83714 12.3307 5.7998 12.4801 5.7998H13.9201C14.0267 5.7998 14.1174 5.83714 14.1921 5.91181C14.2667 5.98647 14.3041 6.07714 14.3041 6.1838V16.6158C14.3041 16.7225 14.2667 16.8131 14.1921 16.8878C14.1174 16.9625 14.0267 16.9998 13.9201 16.9998H12.4321Z" fill="white"/>
</svg>
